# xmcd
#
# Track frame offsets:
#	150
#	14803
#	31316
#	51994
#	70436
#	82398
#	104728
#	128599
#	148748
#	165966
#
# Disc length: 2415 seconds
# Revision: 0
# Processed by: cddbd v1.5.2PL0 Copyright (c) Steve Scherf et al.
# Submitted via: dBpowerAMP V12.0
#
DISCID=94096d0a
DTITLE=Ricky Boen and Texas Mud - Old Time Gospel Favorites
DYEAR=1900
DGENRE=
TTITLE0=When We All Get to Heaven
TTITLE1=Amazing Grace
TTITLE2=What a Friend We Have in Jesus
TTITLE3=Just a CLoser Walk With Thee
TTITLE4=Unclouded Day
TTITLE5=A Poor Wayfaring Stranger
TTITLE6=Int The Garden
TTITLE7=How Great Thou Art
TTITLE8=Old RUgged Cross
TTITLE9=I'll Fly Away
EXTD=
EXTT0=
EXTT1=
EXTT2=
EXTT3=
EXTT4=
EXTT5=
EXTT6=
EXTT7=
EXTT8=
EXTT9=
PLAYORDER=
